<svg width="890" height="890" viewBox="0 0 890 890" fill="none" xmlns="http://www.w3.org/2000/svg">
<g clip-path="url(#clip0_9432_124)">
<path fill-rule="evenodd" clip-rule="evenodd" d="M599 367.75L753 290.75V598.25L445.5 752V598L599 521.25V367.75Z" fill="url(#paint0_linear_9432_124)" style=""/>
<path fill-rule="evenodd" clip-rule="evenodd" d="M445.5 137L753 290.75L599 367.75L445.5 291L292 367.75L138 290.75L445.5 137Z" fill="url(#paint1_linear_9432_124)" style=""/>
<path fill-rule="evenodd" clip-rule="evenodd" d="M445.5 752L138 598.25V290.75L292 367.75V521.25L445.5 598V752Z" fill="url(#paint2_linear_9432_124)" style=""/>
<path d="M599 367.75L445.5 291L292 367.75V521.25L445.5 598L599 521.25V367.75Z" fill="#D8D8D8" style="fill:#D8D8D8;fill:color(display-p3 0.8458 0.8458 0.8458);fill-opacity:1;"/>
<path opacity="0.5" d="M445 445L5 225M445 445L883 226M445 445V883" stroke="url(#paint3_radial_9432_124)" style="" stroke-width="3"/>
<path d="M890 222.5L445 445V890L890 667.5V222.5Z" fill="black" fill-opacity="0.1" style="fill:black;fill-opacity:0.1;"/>
<path d="M890 222.5L445 0L0 222.5L445 445L890 222.5Z" fill="#D9D9D9" fill-opacity="0.1" style="fill:#D9D9D9;fill:color(display-p3 0.8510 0.8510 0.8510);fill-opacity:0.1;"/>
<path d="M0 667.5L445 890V445L0 222.5V667.5Z" fill="#B2B2B2" fill-opacity="0.1" style="fill:#B2B2B2;fill:color(display-p3 0.6968 0.6968 0.6968);fill-opacity:0.1;"/>
</g>
<defs>
<linearGradient id="paint0_linear_9432_124" x1="445.5" y1="291" x2="445.5" y2="598" gradientUnits="userSpaceOnUse">
<stop stop-color="#9731F6" style="stop-color:#9731F6;stop-color:color(display-p3 0.5932 0.1905 0.9663);stop-opacity:1;"/>
<stop offset="1" stop-color="#7B3DB4" style="stop-color:#7B3DB4;stop-color:color(display-p3 0.4811 0.2378 0.7067);stop-opacity:1;"/>
</linearGradient>
<linearGradient id="paint1_linear_9432_124" x1="445.5" y1="291" x2="445.5" y2="598" gradientUnits="userSpaceOnUse">
<stop stop-color="#9731F6" style="stop-color:#9731F6;stop-color:color(display-p3 0.5932 0.1905 0.9663);stop-opacity:1;"/>
<stop offset="1" stop-color="#7B3DB4" style="stop-color:#7B3DB4;stop-color:color(display-p3 0.4811 0.2378 0.7067);stop-opacity:1;"/>
</linearGradient>
<linearGradient id="paint2_linear_9432_124" x1="445.5" y1="291" x2="445.5" y2="598" gradientUnits="userSpaceOnUse">
<stop stop-color="#9731F6" style="stop-color:#9731F6;stop-color:color(display-p3 0.5932 0.1905 0.9663);stop-opacity:1;"/>
<stop offset="1" stop-color="#7B3DB4" style="stop-color:#7B3DB4;stop-color:color(display-p3 0.4811 0.2378 0.7067);stop-opacity:1;"/>
</linearGradient>
<radialGradient id="paint3_radial_9432_124" cx="0" cy="0" r="1" gradientUnits="userSpaceOnUse" gradientTransform="translate(444 445.5) rotate(90) scale(437.5 439)">
<stop stop-color="white" style="stop-color:white;stop-opacity:1;"/>
<stop offset="0.83611" stop-color="white" stop-opacity="0" style="stop-color:none;stop-opacity:0;"/>
</radialGradient>
<clipPath id="clip0_9432_124">
<rect width="890" height="890" fill="white" style="fill:white;fill-opacity:1;"/>
</clipPath>
</defs>
</svg>
