<svg width="957" height="1000" viewBox="0 0 957 1000" fill="none" xmlns="http://www.w3.org/2000/svg">
<path d="M373.554 471.08C285.642 506.779 237.219 565.887 217.052 611.665C212.872 621.153 209.906 630.069 208.054 638.085C197.264 684.774 182.874 774.561 253.03 864.348C267.205 882.49 285.162 899.837 305.197 914.557C305.197 914.557 262.024 860.758 253.03 799.702C244.035 738.646 256.627 686.57 292.605 650.655C328.582 614.74 385.138 603.965 385.138 603.965C375.339 567.563 372.279 524.283 373.554 471.08Z" fill="#454545" fill-opacity="0.73" style="fill:#454545;fill:color(display-p3 0.2708 0.2708 0.2708);fill-opacity:0.73;"/>
<path d="M306.996 740.442C321.387 666.816 393.091 628.268 393.091 628.268C390.056 620.513 387.415 612.425 385.138 603.965C385.138 603.965 328.582 614.74 292.605 650.655C256.627 686.57 244.035 738.646 253.03 799.702C262.024 860.758 305.197 914.557 305.197 914.557C328.468 931.654 354.542 945.206 380.745 952.34C418.803 959.646 475.918 963.385 495.877 962.59C495.877 962.59 423.922 957.727 369.956 920.016C315.99 882.306 292.605 814.068 306.996 740.442Z" fill="#4C4C4C" fill-opacity="0.31" style="fill:#4C4C4C;fill:color(display-p3 0.2980 0.2980 0.2980);fill-opacity:0.31;"/>
<path d="M535.448 472.876C511.257 521.822 499.684 562.214 501.712 603.965C501.712 603.965 515.9 604.83 535.453 611.015C535.453 600.374 541.512 585.346 557.039 569.846C569.631 557.276 593.016 546.501 627.195 557.276C661.374 568.05 678.18 589.599 678.18 589.599C657.816 549.634 620.333 508.074 535.448 472.876Z" fill="#454545" fill-opacity="0.73" style="fill:#454545;fill:color(display-p3 0.2708 0.2708 0.2708);fill-opacity:0.73;"/>
<path d="M699.15 729.668C736.926 744.034 790.892 742.238 790.892 742.238C724.225 729.979 713.41 693.587 699.99 648.428C694.494 629.937 688.562 609.976 678.18 589.599C678.18 589.599 661.374 568.05 627.195 557.276C593.016 546.501 569.631 557.276 557.039 569.846C541.512 585.346 535.453 600.374 535.453 611.015C555.747 617.435 581.821 629.586 603.81 652.451C608.241 657.059 612.369 661.383 616.251 665.449C650.183 700.993 665.251 716.776 699.15 729.668Z" fill="#4C4C4C" fill-opacity="0.31" style="fill:#4C4C4C;fill:color(display-p3 0.2980 0.2980 0.2980);fill-opacity:0.31;"/>
<path fill-rule="evenodd" clip-rule="evenodd" d="M5.04098 453.569C4.508 463.566 5.83162 485.003 17.3774 526.784C35.3661 591.88 76.7402 611.184 127.109 616.572C177.477 621.959 217.052 611.665 217.052 611.665C237.219 565.887 285.642 506.779 373.554 471.08C372.279 524.283 375.339 567.563 385.138 603.965C387.415 612.425 390.056 620.513 393.091 628.268C418.324 692.736 470.792 734.178 567.828 774.562C525.608 704.799 504.115 653.428 501.712 603.965C499.684 562.214 511.257 521.822 535.448 472.876C620.333 508.074 657.816 549.634 678.18 589.599C688.562 609.976 694.494 629.937 699.99 648.428C713.41 693.587 724.225 729.979 790.892 742.238C867.966 756.411 927.606 661.429 940.198 603.965C946.521 579.54 951.602 559.912 952.895 537.522L957 517.769C957 496.464 955.603 475.485 952.895 454.918C922.071 220.812 721.426 45.4858 478.5 45.4858C458.808 45.4858 439.393 46.6734 420.325 48.9805C419.091 47.6055 417.471 45.6497 415.456 43.2181C380.5 18.0312 332.5 9.53081 286.5 2.53099C226.689 -6.57051 98.3266 10.9988 80.3379 23.5336C130.5 39.0312 186 72.5313 206.829 129.886C102.007 202.184 27.5013 315.167 6.21396 445.975C5.80309 448.5 5.41204 451.031 5.04098 453.569Z" fill="#4A4A4A" style="fill:#4A4A4A;fill:color(display-p3 0.2885 0.2885 0.2885);fill-opacity:1;"/>
<path d="M0 523.156C0 786.967 216.56 999.03 480.829 999.03C682.841 999.03 850.255 869.737 925.808 697.344C924.774 699.071 923.794 700.719 922.85 702.305C907.917 727.408 902.279 736.887 843.056 794.315C788.556 839.84 753.31 851.036 724.564 860.167C706.82 865.804 691.552 870.654 675.76 882.306C656.597 896.446 643.381 911.038 630.789 930.791C630.789 930.791 611.001 907.446 584.018 909.242C557.035 911.038 526.454 909.242 483.281 898.467C440.108 887.693 355.561 814.068 355.561 814.068C371.447 851.27 387.233 887.662 414.924 912.834C443.025 938.378 475.661 950.281 492.223 956.322C498.986 958.788 503.069 960.277 503.069 961.319C503.069 961.988 500.447 962.408 495.877 962.59C475.918 963.385 418.803 959.646 380.745 952.34C354.542 945.206 328.468 931.654 305.197 914.557C285.162 899.837 267.205 882.49 253.03 864.348C182.874 774.561 197.264 684.774 208.054 638.085C209.906 630.069 212.872 621.153 217.052 611.665C217.052 611.665 177.477 621.959 127.109 616.572C76.7402 611.184 35.3661 591.88 17.3774 526.784C5.83162 485.003 4.508 463.566 5.04098 453.569C1.71969 476.286 0 499.52 0 523.156Z" fill="#404040" style="fill:#404040;fill:color(display-p3 0.2500 0.2500 0.2500);fill-opacity:1;"/>
</svg>
