<svg width="957" height="1000" viewBox="0 0 957 1000" fill="none" xmlns="http://www.w3.org/2000/svg">
<path d="M373.554 471.066C285.642 506.765 237.219 565.873 217.052 611.651C212.872 621.139 209.906 630.055 208.054 638.071C197.264 684.761 182.874 774.547 253.03 864.335C267.205 882.476 285.162 899.823 305.197 914.543C305.197 914.543 262.024 860.744 253.03 799.688C244.035 738.633 256.627 686.556 292.605 650.641C328.582 614.726 385.138 603.952 385.138 603.952C375.339 567.549 372.279 524.27 373.554 471.066Z" fill="#BDBDBD" fill-opacity="0.6" style="fill:#BDBDBD;fill:color(display-p3 0.7417 0.7417 0.7417);fill-opacity:0.6;"/>
<path d="M306.996 740.428C321.387 666.803 393.091 628.255 393.091 628.255C390.056 620.5 387.415 612.411 385.138 603.952C385.138 603.952 328.582 614.726 292.605 650.641C256.627 686.556 244.035 738.633 253.03 799.688C262.024 860.744 305.197 914.543 305.197 914.543C328.468 931.64 354.542 945.192 380.745 952.326C418.803 959.632 475.918 963.372 495.877 962.576C495.877 962.576 423.922 957.714 369.956 920.003C315.99 882.292 292.605 814.054 306.996 740.428Z" fill="#D2D2D2" fill-opacity="0.32" style="fill:#D2D2D2;fill:color(display-p3 0.8235 0.8235 0.8235);fill-opacity:0.32;"/>
<path d="M535.448 472.862C511.257 521.809 499.684 562.201 501.712 603.952C501.712 603.952 515.9 604.816 535.453 611.001C535.453 600.36 541.512 585.332 557.039 569.832C569.631 557.262 593.016 546.487 627.195 557.262C661.374 568.036 678.18 589.586 678.18 589.586C657.816 549.621 620.333 508.06 535.448 472.862Z" fill="#BDBDBD" fill-opacity="0.6" style="fill:#BDBDBD;fill:color(display-p3 0.7417 0.7417 0.7417);fill-opacity:0.6;"/>
<path d="M699.15 729.654C736.926 744.02 790.892 742.224 790.892 742.224C724.225 729.965 713.41 693.573 699.99 648.414C694.494 629.923 688.562 609.962 678.18 589.586C678.18 589.586 661.374 568.036 627.195 557.262C593.016 546.487 569.631 557.262 557.039 569.832C541.512 585.332 535.453 600.36 535.453 611.001C555.747 617.421 581.821 629.572 603.81 652.437C608.241 657.045 612.369 661.369 616.251 665.435C650.183 700.979 665.251 716.763 699.15 729.654Z" fill="#D2D2D2" fill-opacity="0.32" style="fill:#D2D2D2;fill:color(display-p3 0.8235 0.8235 0.8235);fill-opacity:0.32;"/>
<path fill-rule="evenodd" clip-rule="evenodd" d="M5.04098 453.556C4.508 463.552 5.83162 484.989 17.3774 526.77C35.3661 591.866 76.7402 611.171 127.109 616.558C177.477 621.945 217.052 611.651 217.052 611.651C237.219 565.873 285.642 506.765 373.554 471.066C372.279 524.27 375.339 567.549 385.138 603.952C387.415 612.411 390.056 620.5 393.091 628.255C418.324 692.722 470.792 734.165 567.828 774.548C525.608 704.785 504.115 653.415 501.712 603.952C499.684 562.201 511.257 521.809 535.448 472.862C620.333 508.06 657.816 549.621 678.18 589.586C688.562 609.962 694.494 629.923 699.99 648.414C713.41 693.573 724.225 729.965 790.892 742.224C867.966 756.398 927.606 661.416 940.198 603.952C946.521 579.526 951.602 559.899 952.895 537.509L957 517.755C957 496.45 955.603 475.472 952.895 454.904C922.071 220.798 721.426 45.4722 478.5 45.4722C458.808 45.4722 439.393 46.6597 420.325 48.9668C419.091 47.5918 417.471 45.636 415.456 43.2045C380.5 18.0176 332.5 9.51714 286.5 2.51732C226.689 -6.58418 98.3266 10.9852 80.3379 23.5199C130.5 39.0176 186 72.5176 206.829 129.873C102.007 202.17 27.5013 315.154 6.21396 445.962C5.80309 448.486 5.41204 451.018 5.04098 453.556Z" fill="#E6E6E6" style="fill:#E6E6E6;fill:color(display-p3 0.9020 0.9020 0.9020);fill-opacity:1;"/>
<path d="M0 523.143C0 786.953 216.56 999.016 480.829 999.016C682.841 999.016 850.255 869.723 925.808 697.331C924.774 699.057 923.794 700.706 922.85 702.292C907.917 727.395 902.279 736.874 843.056 794.301C788.556 839.826 753.31 851.022 724.564 860.154C706.82 865.79 691.552 870.64 675.76 882.292C656.597 896.432 643.381 911.024 630.789 930.777C630.789 930.777 611.001 907.433 584.018 909.228C557.035 911.024 526.454 909.228 483.281 898.454C440.108 887.679 355.561 814.054 355.561 814.054C371.447 851.257 387.233 887.648 414.924 912.82C443.025 938.365 475.661 950.267 492.223 956.308C498.986 958.775 503.069 960.264 503.069 961.305C503.069 961.974 500.447 962.394 495.877 962.576C475.918 963.372 418.803 959.632 380.745 952.326C354.542 945.192 328.468 931.64 305.197 914.543C285.162 899.823 267.205 882.476 253.03 864.335C182.874 774.547 197.264 684.761 208.054 638.071C209.906 630.055 212.872 621.139 217.052 611.651C217.052 611.651 177.477 621.945 127.109 616.558C76.7402 611.171 35.3661 591.866 17.3774 526.77C5.83162 484.989 4.508 463.552 5.04098 453.556C1.71969 476.272 0 499.507 0 523.143Z" fill="#D0D0D0" style="fill:#D0D0D0;fill:color(display-p3 0.8173 0.8173 0.8173);fill-opacity:1;"/>
</svg>
