<svg width="266" height="298" viewBox="0 0 266 298" fill="none" xmlns="http://www.w3.org/2000/svg">
<path d="M103.83 150.647C79.3946 160.587 65.9356 177.044 60.3301 189.791C59.1682 192.432 58.3438 194.915 57.8289 197.147C54.83 210.147 50.8301 235.147 70.3301 260.147C74.2701 265.198 79.2614 270.028 84.8301 274.126C84.8301 274.126 72.8301 259.147 70.3301 242.147C67.8301 225.147 71.3301 210.647 81.3301 200.647C91.3301 190.647 107.05 187.647 107.05 187.647C104.326 177.511 103.476 165.46 103.83 150.647Z" fill="#1E1E1E" fill-opacity="0.33" style="fill:#1E1E1E;fill:color(display-p3 0.1167 0.1167 0.1167);fill-opacity:0.33;"/>
<path d="M85.3301 225.647C89.3301 205.147 109.26 194.414 109.26 194.414C108.417 192.254 107.683 190.002 107.05 187.647C107.05 187.647 91.3301 190.647 81.3301 200.647C71.3301 210.647 67.8301 225.147 70.3301 242.147C72.8301 259.147 84.8301 274.126 84.8301 274.126C91.2984 278.887 98.5457 282.66 105.829 284.647C116.407 286.681 132.282 287.722 137.83 287.5C137.83 287.5 117.83 286.147 102.83 275.647C87.8301 265.147 81.3301 246.147 85.3301 225.647Z" fill="#262626" fill-opacity="0.24" style="fill:#262626;fill:color(display-p3 0.1490 0.1490 0.1490);fill-opacity:0.24;"/>
<path d="M148.829 151.147C142.105 164.775 138.888 176.022 139.452 187.647C139.452 187.647 143.395 187.887 148.83 189.61C148.83 186.647 150.514 182.462 154.83 178.147C158.33 174.647 164.83 171.647 174.33 174.647C183.83 177.647 188.501 183.647 188.501 183.647C182.841 172.519 172.423 160.947 148.829 151.147Z" fill="#1E1E1E" fill-opacity="0.33" style="fill:#1E1E1E;fill:color(display-p3 0.1167 0.1167 0.1167);fill-opacity:0.33;"/>
<path d="M194.33 222.647C204.83 226.647 219.83 226.147 219.83 226.147C201.3 222.733 198.294 212.6 194.563 200.027C193.036 194.878 191.387 189.32 188.501 183.647C188.501 183.647 183.83 177.647 174.33 174.647C164.83 171.647 158.33 174.647 154.83 178.147C150.514 182.462 148.83 186.647 148.83 189.61C154.471 191.397 161.718 194.78 167.83 201.147C169.062 202.43 170.209 203.634 171.288 204.766C180.72 214.663 184.908 219.057 194.33 222.647Z" fill="#262626" fill-opacity="0.24" style="fill:#262626;fill:color(display-p3 0.1490 0.1490 0.1490);fill-opacity:0.24;"/>
<path fill-rule="evenodd" clip-rule="evenodd" d="M1.40115 145.771C1.25301 148.555 1.62091 154.523 4.83008 166.157C9.83008 184.282 21.3301 189.657 35.3301 191.157C49.3301 192.657 60.3301 189.791 60.3301 189.791C65.9356 177.044 79.3946 160.587 103.83 150.647C103.476 165.46 104.326 177.511 107.05 187.647C107.683 190.002 108.417 192.254 109.26 194.414C116.274 212.364 130.858 223.903 157.829 235.147C146.094 215.722 140.12 201.419 139.452 187.647C138.888 176.022 142.105 164.775 148.829 151.147C172.423 160.947 182.841 172.519 188.501 183.647C191.387 189.32 193.036 194.878 194.563 200.027C198.294 212.6 201.3 222.733 219.83 226.147C241.253 230.093 257.83 203.647 261.33 187.647C263.087 180.846 264.5 175.381 264.859 169.147L266 163.647C266 157.715 265.612 151.873 264.859 146.147C256.292 80.9634 200.522 32.1467 133 32.1467C127.527 32.1467 122.13 32.4773 116.83 33.1197C116.487 32.7369 116.037 32.1923 115.477 31.5153C109.502 24.2923 91.0573 1.99336 57.8301 0.156201C31.7116 -1.28792 12.3301 7.66647 7.33008 11.1566C32.0572 21.7453 43.3301 32.1566 57.4885 55.6467C28.3529 75.7768 7.64405 107.235 1.72718 143.657C1.61298 144.36 1.50429 145.065 1.40115 145.771ZM243.83 130.157C249.83 145.657 250.857 196.657 231.83 196.657C224.147 196.657 217.134 176.125 210.492 156.681C207.192 147.021 203.984 137.629 200.831 131.157C190.33 103.157 185.83 87.6566 194.83 83.1566C202.33 80.1566 229.33 87.1564 243.83 130.157ZM85.3301 85.1566C85.3301 89.2987 77.7189 95.1556 68.3301 95.1556C58.9412 95.1556 55.8301 91.2987 55.8301 87.1566C55.8301 83.0145 63.4412 75.6566 72.8301 75.6566C82.2189 75.6566 85.3301 81.0145 85.3301 85.1566ZM55.8301 107.554C55.8301 109.254 52.476 111.657 48.3386 111.657C44.2011 111.657 42.8301 110.074 42.8301 108.375C42.8301 106.675 46.1841 103.657 50.3216 103.657C54.4591 103.657 55.8301 105.855 55.8301 107.554ZM48.8301 95.0158C48.8301 97.3525 44.186 100.657 38.4572 100.657C32.7284 100.657 30.8301 98.4808 30.8301 96.1441C30.8301 93.8074 35.4742 89.6566 41.203 89.6566C46.9317 89.6566 48.8301 92.6791 48.8301 95.0158Z" fill="#4A4A4A" style="fill:#4A4A4A;fill:color(display-p3 0.2885 0.2885 0.2885);fill-opacity:1;"/>
<path d="M0 165.147C0 238.601 60.1934 297.647 133.647 297.647C189.797 297.647 236.33 261.647 257.33 213.647C257.043 214.127 256.77 214.586 256.508 215.028C252.357 222.018 250.79 224.657 234.329 240.647C219.181 253.322 209.384 256.44 201.394 258.982C196.462 260.552 192.218 261.902 187.829 265.147C182.502 269.084 178.829 273.147 175.329 278.647C175.329 278.647 169.829 272.147 162.329 272.647C154.829 273.147 146.329 272.647 134.329 269.647C122.329 266.647 98.8289 246.147 98.8289 246.147C103.244 256.505 107.632 266.638 115.329 273.647C123.14 280.759 132.211 284.073 136.814 285.755C138.694 286.442 139.829 286.857 139.829 287.147C139.829 287.333 139.1 287.45 137.83 287.5C132.282 287.722 116.407 286.681 105.829 284.647C98.5457 282.66 91.2984 278.887 84.8301 274.126C79.2614 270.028 74.2701 265.198 70.3301 260.147C50.8301 235.147 54.83 210.147 57.8289 197.147C58.3438 194.915 59.1682 192.432 60.3301 189.791C60.3301 189.791 49.3301 192.657 35.3301 191.157C21.3301 189.657 9.83008 184.282 4.83008 166.157C1.62091 154.523 1.25301 148.555 1.40115 145.771C0.477991 152.096 0 158.566 0 165.147Z" fill="#404040" style="fill:#404040;fill:color(display-p3 0.2500 0.2500 0.2500);fill-opacity:1;"/>
<path d="M243.83 130.157C249.83 145.657 250.857 196.657 231.83 196.657C224.147 196.657 217.134 176.125 210.492 156.681C207.192 147.021 203.984 137.629 200.831 131.157C190.33 103.157 185.83 87.6566 194.83 83.1566C202.33 80.1566 229.33 87.1564 243.83 130.157Z" fill="#1E1E1E" fill-opacity="0.33" style="fill:#1E1E1E;fill:color(display-p3 0.1167 0.1167 0.1167);fill-opacity:0.33;"/>
<path d="M85.3301 85.1566C85.3301 89.2987 77.7189 95.1556 68.3301 95.1556C58.9412 95.1556 55.8301 91.2987 55.8301 87.1566C55.8301 83.0145 63.4412 75.6566 72.8301 75.6566C82.2189 75.6566 85.3301 81.0145 85.3301 85.1566Z" fill="#1E1E1E" fill-opacity="0.33" style="fill:#1E1E1E;fill:color(display-p3 0.1167 0.1167 0.1167);fill-opacity:0.33;"/>
<path d="M48.8301 95.0158C48.8301 97.3525 44.186 100.657 38.4572 100.657C32.7284 100.657 30.8301 98.4808 30.8301 96.1441C30.8301 93.8074 35.4742 89.6566 41.203 89.6566C46.9317 89.6566 48.8301 92.6791 48.8301 95.0158Z" fill="#1E1E1E" fill-opacity="0.33" style="fill:#1E1E1E;fill:color(display-p3 0.1167 0.1167 0.1167);fill-opacity:0.33;"/>
<path d="M55.8301 107.554C55.8301 109.254 52.476 111.657 48.3386 111.657C44.2011 111.657 42.8301 110.074 42.8301 108.375C42.8301 106.675 46.1841 103.657 50.3216 103.657C54.4591 103.657 55.8301 105.855 55.8301 107.554Z" fill="#1E1E1E" fill-opacity="0.33" style="fill:#1E1E1E;fill:color(display-p3 0.1167 0.1167 0.1167);fill-opacity:0.33;"/>
</svg>
